# xmcd
#
# Track frame offsets:
#	150
#	16169
#	31545
#	56466
#	71677
#	87118
#	106264
#	122882
#	139963
#	158811
#	171786
#
# Disc length: 2522 seconds
#
# Revision: 0
# Processed by: cddbd v1.5.1PL2 Copyright (c) Steve Scherf et al.
# Submitted via: dBpowerAMP V4.0
#
DISCID=8509d80b
DTITLE=Bobby Duncan - Lonesome Town
DYEAR=1900
DGENRE=Country
TTITLE0=Back Out On The Town
TTITLE1=This Ain't Love
TTITLE2=Live Your Life
TTITLE3=Hometown City Limit Sign
TTITLE4=Dallas
TTITLE5=Lonesome Town
TTITLE6=Miles Away
TTITLE7=Back To You
TTITLE8=I'm Goin' Crazy
TTITLE9=My Brew and Me
TTITLE10=My Last Goodbye
EXTD=Bobby Duncan\nLonesome Town
EXTT0=
EXTT1=
EXTT2=
EXTT3=
EXTT4=
EXTT5=
EXTT6=
EXTT7=
EXTT8=
EXTT9=
EXTT10=
PLAYORDER=
